PathFileType	4	(X/Y/Z)	D:\TRACE\spotREDO_2-26-24\spot_Both_Motion_1_9-v60.trc
DataRate	CameraRate	NumFrames	NumMarkers	Units	OrigDataRate	OrigDataStartFrame	OrigNumFrames
100.00	100.00	      14	9	mm	100.00	1751	      7000
Frame#	Time	front left toe			Front right toe			aft left toe			aft right toe			Arm			FL body			FR body			AL Body			AR Body			
		X1	Y1	Z1	X2	Y2	Z2	X3	Y3	Z3	X4	Y4	Z4	X5	Y5	Z5	X6	Y6	Z6	X7	Y7	Z7	X8	Y8	Z8	X9	Y9	Z9	

1751	17.500	-204.98672	6.76455	-444.17432	169.45822	2.80150	-452.67468	-155.32864	16.81236	146.05667	130.35846	22.55680	118.05899	-69.79568	664.82031	-810.54370	-65.90348	545.29260	-563.67615	89.03215	548.64807	-555.90894	-115.90314	570.81818	318.87347	24.72219	575.07690	327.78949	
1752	17.510	-205.23019	7.12128	-444.23761	169.45241	3.06996	-452.31174	-155.59491	16.85541	146.11124	130.10040	22.40789	118.12442	-70.12221	665.03369	-810.32996	-64.63006	544.99255	-563.90399	90.16032	548.49756	-556.45367	-114.62586	570.69379	318.65131	26.18219	575.20276	327.42221	
1753	17.520	-205.54694	7.62345	-444.12018	168.80357	3.00147	-452.46078	-155.86575	17.09240	146.22487	130.02763	22.22770	118.21146	-70.31314	665.36804	-810.11597	-63.49401	544.99103	-564.20569	91.62035	548.51007	-556.64484	-113.37417	570.63074	318.13513	27.19530	575.17633	327.09540	
1754	17.530	-205.69287	7.96119	-444.09738	168.19919	2.86943	-452.68463	-156.13148	17.39018	146.25050	129.95705	22.05541	118.33277	-70.36826	665.51538	-809.46820	-62.54367	544.97339	-564.41071	92.60999	548.57220	-556.92865	-111.99426	570.39069	318.06912	28.65955	574.82092	326.63733	
1755	17.540	-205.87421	8.26082	-444.06937	168.23114	3.00116	-452.61978	-156.31212	17.48786	146.22662	129.80370	21.88602	118.29838	-69.91960	665.55475	-809.03284	-61.55272	544.88544	-564.60016	93.28750	548.51050	-557.10333	-110.68787	570.24231	317.86469	29.76427	574.63953	326.52075	
1756	17.550	-205.72456	8.03756	-443.93857	167.99733	3.07824	-452.39694	-156.49483	17.33647	146.21852	129.78763	21.85283	118.35924	-69.59755	665.45044	-808.92810	-60.89300	544.75452	-564.74438	94.15488	548.52576	-557.44299	-109.36686	570.00061	317.84482	31.31150	574.46588	326.34540	
1757	17.560	-205.99333	7.75319	-443.62012	167.78989	3.41743	-452.24829	-156.57202	17.41212	146.23535	129.73044	21.66770	118.41563	-69.30688	665.45056	-808.84912	-60.30216	544.78320	-564.89374	94.43692	548.58374	-557.66901	-107.87903	569.69031	317.68542	32.54608	574.39038	326.15393	
1758	17.570	-206.21719	8.12494	-443.53024	167.44431	3.71351	-452.20267	-156.66698	17.44909	146.27008	129.62703	21.55396	118.51318	-68.92858	665.58978	-808.78705	-60.00535	544.89215	-564.96448	94.79971	548.73840	-557.99750	-106.82876	569.55945	317.80756	34.10560	574.17688	326.24762	
1759	17.580	-206.56099	8.59494	-443.40488	167.42070	3.91284	-452.11075	-156.85957	17.80713	146.24492	129.41832	21.39918	118.59863	-68.58672	665.73987	-809.11957	-59.55629	544.89716	-564.87823	95.46341	548.94586	-558.05402	-105.55380	569.34918	317.65738	35.40786	574.06787	326.03452	
1760	17.590	-207.07500	9.46646	-443.41324	167.13193	3.84640	-452.17798	-157.04268	17.92303	146.36845	129.12248	21.14494	118.59665	-68.30550	665.88208	-809.13446	-59.28357	544.95538	-564.70770	95.79084	549.09253	-558.18188	-104.30703	569.24585	317.70572	36.51892	573.98328	326.06384	
1761	17.600	-207.53383	9.77241	-443.42685	166.78659	3.90908	-452.21158	-157.37750	17.81340	146.44725	128.60199	21.07498	118.58179	-67.85458	665.84869	-808.93542	-58.73629	544.94751	-564.71790	96.33124	549.26813	-558.18433	-103.34897	568.98206	317.87894	37.26414	573.91254	325.88092	
1762	17.610	-207.81195	9.93006	-443.46814	166.61501	4.31143	-452.07019	-157.84247	17.58919	146.70691	128.20073	20.89317	118.53066	-67.60698	665.72864	-808.74982	-58.19949	544.95490	-564.68250	96.81291	549.37366	-558.19849	-102.69558	568.85406	317.95236	38.44267	573.68066	326.05273	
1763	17.620	-208.12546	10.17747	-443.36377	166.07378	4.49024	-451.98288	-158.22163	17.62175	146.75211	127.78143	20.67810	118.59409	-67.53305	665.79095	-808.72937	-58.03485	545.14233	-564.62903	97.28065	549.59918	-558.23224	-101.67803	568.55969	318.02457	39.10348	573.65796	326.01413	
1764	17.630	-208.30693	10.38964	-443.24493	165.57048	4.53359	-451.97116	-158.64340	17.57775	146.84825	127.46806	20.51501	118.75195	-67.47806	666.02808	-808.79553	-57.29100	545.44202	-564.66022	97.63809	549.92664	-558.25690	-100.84682	568.48083	318.19675	39.74456	573.63568	325.95612	
